<svg version="1.1" id="Layer_1" xmlns="http://www.w3.org/2000/svg" xmlns:xlink="http://www.w3.org/1999/xlink" x="0px" y="0px"
	 width="100%" viewBox="0 0 1024 1024" enable-background="new 0 0 1024 1024" xml:space="preserve">
<path fill="#000000" opacity="1.000000" stroke="none" 
	d="
M189.000092,388.704590 
	C207.998413,388.707642 226.498123,388.834106 244.994095,388.627686 
	C249.594543,388.576355 251.311935,390.279419 251.274628,394.691833 
	C251.185165,405.268127 253.943146,415.337830 257.787567,425.864380 
	C232.211075,427.772064 207.319397,425.865021 181.684082,426.278961 
	C188.409180,431.675446 194.677261,436.734436 200.975937,441.755035 
	C260.131439,488.906677 319.103943,536.290588 378.513306,583.120239 
	C422.881042,618.093323 466.296722,654.218262 509.937347,690.074036 
	C512.999573,692.589966 515.037109,692.562866 518.057190,690.121399 
	C559.647949,656.499634 601.246643,622.886841 642.994751,589.460938 
	C694.628784,548.119812 746.425354,506.981659 798.105469,465.697968 
	C814.364563,452.709625 830.474854,439.535034 847.050415,426.124390 
	C823.635010,426.124390 800.776245,426.121918 777.917419,426.125793 
	C770.576965,426.127045 770.585205,426.136719 772.368408,418.957672 
	C774.381836,410.851837 775.321777,402.565460 775.517700,394.267609 
	C775.623535,389.784973 777.165344,388.630341 781.406433,388.643890 
	C819.402588,388.765076 857.399414,388.676819 895.395935,388.724426 
	C906.713074,388.738617 913.294189,395.355682 913.329712,406.899384 
	C913.420105,436.229736 913.359558,465.560516 913.359131,494.891144 
	C913.357300,624.046143 913.355103,753.201172 913.353455,882.356201 
	C913.353271,897.238525 906.334961,904.287354 891.357666,904.289246 
	C681.876587,904.315796 472.395538,904.330383 262.914459,904.343018 
	C220.584946,904.345581 178.255447,904.337036 135.925934,904.314880 
	C122.888275,904.308044 115.515938,897.326782 114.774277,884.227722 
	C114.576721,880.738342 114.696098,877.230164 114.695961,873.730591 
	C114.689758,719.244568 114.686028,564.758484 114.683678,410.272430 
	C114.683456,395.750824 121.626114,388.719757 136.006027,388.707733 
	C153.504028,388.693146 171.002075,388.704712 189.000092,388.704590 
M552.056885,712.589111 
	C543.955505,719.254944 535.913086,725.994141 527.738342,732.568665 
	C516.419250,741.672241 511.645813,741.644714 500.597260,732.536560 
	C476.947449,713.040222 453.474518,693.329529 429.342194,674.420959 
	C426.152252,671.921692 424.192047,671.718811 420.938721,674.400635 
	C402.949249,689.230164 384.751373,703.807251 366.599670,718.439514 
	C313.833588,760.974854 261.051544,803.490417 208.286682,846.027222 
	C200.699615,852.143494 193.172440,858.334045 185.617554,864.490295 
	C185.751724,864.896729 185.885895,865.303223 186.020065,865.709656 
	C405.260895,865.319092 624.502991,866.278748 844.737488,864.963623 
	C841.943481,862.637390 840.052551,861.015320 838.112305,859.454590 
	C793.332214,823.432800 748.597107,787.354858 703.745361,751.422485 
	C671.762695,725.799988 639.598206,700.404602 607.591797,674.811646 
	C604.640015,672.451416 602.458435,672.166931 599.395874,674.652161 
	C583.877930,687.243958 568.214233,699.656006 552.056885,712.589111 
M153.369614,713.499939 
	C153.369614,755.236084 153.369614,796.972168 153.369614,840.105042 
	C234.438675,774.915039 314.400299,710.615479 394.695160,646.048035 
	C314.247253,581.803955 235.016479,517.329895 153.369476,454.179932 
	C153.369476,540.969543 153.369476,626.734680 153.369614,713.499939 
M707.208374,704.265320 
	C762.754333,748.822144 818.300354,793.378906 874.184143,838.206665 
	C874.184143,710.305420 874.184143,583.173889 874.184143,455.043427 
	C794.017029,519.214600 713.665894,581.523621 634.305115,645.989624 
	C658.808594,665.576294 682.730713,684.698364 707.208374,704.265320 
z"/>
<path fill="#000000" opacity="1.000000" stroke="none" 
	d="
M572.721375,527.550293 
	C546.060425,519.899475 529.057739,503.445496 523.278625,476.307159 
	C522.696472,473.573334 522.685486,470.682953 522.684998,467.865204 
	C522.665466,358.366760 523.136169,248.865265 522.410889,139.371674 
	C522.189575,105.964180 546.896973,81.738029 573.995850,75.697426 
	C608.538940,67.997429 645.230164,86.721840 659.327026,119.576294 
	C661.029602,123.544342 663.343506,125.076195 667.345093,125.634689 
	C707.796387,131.280457 738.623596,160.772339 746.005249,200.730621 
	C748.379272,213.581940 747.245728,226.279953 743.958618,238.795151 
	C743.097595,242.073441 743.603455,243.794510 746.536133,245.742355 
	C790.522644,274.957733 800.174438,335.165955 766.310852,375.550354 
	C759.118958,384.127136 757.218506,391.808167 756.981934,402.311584 
	C756.050171,443.681458 723.310486,484.920471 678.685181,491.378754 
	C669.559448,492.699432 660.407410,493.319672 651.411987,491.036316 
	C647.486267,490.039825 646.732544,492.735535 645.496094,494.835876 
	C638.449585,506.805359 628.866882,516.094971 616.320312,522.033447 
	C602.590271,528.532104 588.245605,531.312256 572.721375,527.550293 
M763.816345,319.500214 
	C764.079529,310.193146 762.386780,301.282501 758.391479,292.843689 
	C751.289246,277.842224 740.115356,266.825653 725.569702,259.003479 
	C716.553772,254.154968 715.520874,251.133133 719.059570,241.801590 
	C729.705383,213.728470 722.791382,183.973831 700.915771,164.729248 
	C690.991089,155.998199 679.484802,150.437668 666.019775,148.500839 
	C665.934998,149.557541 665.862854,150.189255 665.836548,150.822845 
	C665.135376,167.694229 660.133484,183.400635 648.590027,195.563217 
	C641.914673,202.596603 640.619263,208.725891 642.774902,217.475098 
	C644.216187,223.325012 644.466614,229.656570 643.264221,235.819885 
	C641.996887,242.315872 637.567139,246.443634 631.827698,246.324417 
	C626.179626,246.207123 621.839233,241.752182 621.041260,235.200363 
	C620.921143,234.213959 620.928406,233.202423 620.974243,232.207001 
	C621.276001,225.649139 620.284424,219.260941 618.559204,212.956131 
	C609.781189,180.876678 576.525696,168.325378 549.006287,186.640503 
	C546.369812,188.395187 545.197388,190.362946 545.236511,193.593262 
	C545.389954,206.257782 545.277222,218.925385 545.324463,231.591599 
	C545.329712,232.993622 544.742676,234.602936 546.297668,235.911163 
	C550.685364,234.691711 555.088867,233.171448 559.615845,232.273773 
	C568.039124,230.603470 576.513123,229.816086 584.357178,234.561676 
	C589.191101,237.486160 591.260803,243.481964 589.352112,248.410400 
	C587.211975,253.936600 581.896484,257.088013 576.242310,255.796997 
	C566.206665,253.505600 557.147339,256.252655 548.320496,260.679108 
	C546.325928,261.679382 545.346619,263.015900 545.348389,265.352966 
	C545.363892,286.019165 545.294128,306.685425 545.251038,327.351685 
	C545.247070,329.248962 545.409668,330.964905 547.617432,331.788940 
	C558.949951,336.018951 570.061218,336.701416 580.597778,329.624237 
	C590.870300,322.724396 595.536072,313.088715 594.811157,300.643768 
	C594.449951,294.442566 598.017639,290.335022 603.750610,289.234192 
	C609.091675,288.208618 614.127075,291.296692 616.079102,297.044373 
	C616.764343,299.062164 617.186157,301.252258 617.264465,303.380768 
	C618.306946,331.735260 593.914429,357.063507 565.577026,357.405609 
	C558.892212,357.486267 552.414307,356.341675 546.064636,355.051941 
	C545.716248,355.766388 545.448242,356.059540 545.448059,356.352783 
	C545.435913,376.682251 545.451111,397.011688 545.442993,417.341156 
	C545.442261,419.224670 546.304626,420.444092 547.919678,421.325348 
	C574.758728,435.969879 598.022034,418.639343 602.683899,397.433197 
	C603.637451,393.095673 603.203979,388.895752 602.885254,384.577271 
	C602.463806,378.867126 606.562317,373.881470 612.146667,372.581818 
	C617.276062,371.388062 621.904236,374.116394 624.203613,379.863068 
	C625.572876,383.285095 626.213684,386.887817 626.269409,390.588531 
	C626.805298,426.166260 591.369507,455.904266 556.469055,449.096619 
	C553.087341,448.436981 549.797852,447.304688 546.111328,446.294769 
	C546.111328,454.434906 545.831787,462.211823 546.178467,469.960724 
	C546.668640,480.918518 551.805420,489.860016 560.147217,496.599548 
	C581.853943,514.136963 612.332092,505.299469 626.384460,482.976593 
	C627.840149,480.664154 627.326233,479.278381 625.280518,477.543457 
	C616.225159,469.863739 616.545715,462.200775 626.399292,455.868195 
	C640.153198,447.028961 651.359375,436.374817 654.591492,419.459930 
	C654.653564,419.135223 654.763855,418.813232 654.896423,418.509460 
	C656.650513,414.491333 659.729187,412.078064 664.071960,411.812561 
	C668.496948,411.542023 671.639160,413.799896 673.687744,417.704803 
	C675.830994,421.790131 675.789551,426.060394 674.722046,430.346436 
	C672.127258,440.764893 666.889038,449.727173 659.514160,457.497528 
	C656.679626,460.484100 653.986267,463.604675 650.481750,467.492737 
	C668.655579,473.149384 684.913025,468.731995 700.202209,459.284027 
	C721.427368,446.167969 738.406494,415.623932 733.908752,399.161835 
	C732.968750,399.380219 731.983398,399.502289 731.076111,399.836426 
	C721.574219,403.335510 711.760742,405.053009 701.666382,404.279816 
	C683.854248,402.915436 668.399841,396.282227 656.526611,382.596741 
	C651.360291,376.641846 651.752808,369.727844 656.769165,365.144073 
	C660.862183,361.403961 667.697388,362.287567 673.035095,367.621185 
	C684.824097,379.401062 699.726685,384.045135 716.135559,380.970459 
	C741.605774,376.197906 764.644104,350.900024 763.816345,319.500214 
M567.931396,103.396156 
	C558.425537,108.909821 550.366150,116.029007 547.603333,126.968979 
	C544.805847,138.046326 544.840576,149.472656 546.031189,161.320847 
	C579.428650,148.338760 606.571045,157.097565 629.044312,182.610397 
	C644.558350,167.479736 646.026306,140.880432 632.855225,121.395737 
	C618.383362,99.986740 592.352478,92.569611 567.931396,103.396156 
z"/>
<path fill="#000000" opacity="1.000000" stroke="none" 
	d="
M308.550415,473.513397 
	C284.177979,453.844360 270.613678,428.884766 271.100830,397.709503 
	C271.233826,389.197937 268.785126,384.040833 263.424286,377.916321 
	C229.170883,338.783539 235.264420,277.234680 280.617310,246.746964 
	C284.537079,244.111984 285.608917,241.828018 284.483490,237.137634 
	C272.175476,185.843445 307.349365,133.676468 359.613922,125.745712 
	C365.276031,124.886513 368.312988,122.770874 370.836273,117.387505 
	C389.268280,78.063240 436.304199,62.164154 473.257141,83.080032 
	C493.814240,94.715630 505.383270,112.620827 505.387573,136.914139 
	C505.407166,246.888474 505.296112,356.862976 505.478149,466.837006 
	C505.506500,483.965210 499.363861,498.078278 487.179413,509.553589 
	C473.909821,522.050842 458.478271,529.870850 439.624664,529.435913 
	C418.023895,528.937561 401.807526,518.283264 388.072937,502.695557 
	C384.782867,498.961578 383.486084,492.637207 379.018219,491.241516 
	C374.884827,489.950317 369.649475,492.714142 364.875305,492.850708 
	C348.856537,493.309052 333.900940,489.191040 320.044739,481.214996 
	C316.158752,478.978088 312.557068,476.247253 308.550415,473.513397 
M473.845184,424.397888 
	C480.227112,422.854889 483.729950,419.489929 483.594360,412.232819 
	C483.270691,394.907074 483.541107,377.570404 483.546478,360.238129 
	C483.546875,358.926056 483.557373,357.554260 482.268341,356.263702 
	C481.354065,356.377319 480.208221,356.412140 479.115570,356.671234 
	C447.802826,364.096191 418.327179,345.292236 411.909882,313.709534 
	C410.574951,307.139740 409.563782,300.519806 413.191345,294.240479 
	C415.664795,289.959015 420.477478,287.795166 425.088226,288.904358 
	C429.933655,290.070007 433.063568,293.861603 433.319397,298.941162 
	C433.394775,300.437836 433.354370,301.940460 433.363464,303.440338 
	C433.476044,322.020477 453.695740,343.750183 478.891083,332.358215 
	C481.486115,331.184845 482.744049,329.703217 482.730408,326.724609 
	C482.635773,306.058777 482.654144,285.392242 482.703979,264.726105 
	C482.709900,262.272308 481.918671,260.660004 479.600739,259.628632 
	C470.872467,255.744919 461.882202,253.930450 452.359192,255.797058 
	C445.848297,257.073273 440.219879,254.182892 438.230133,248.538818 
	C436.227264,242.857559 439.176270,236.485748 445.249756,233.771362 
	C450.852600,231.267319 456.791260,230.814545 462.857025,231.236572 
	C469.435852,231.694275 475.817932,233.246979 483.050781,235.440689 
	C483.050781,221.388580 482.879150,208.249695 483.146667,195.119751 
	C483.236603,190.705750 481.533447,188.049820 478.039825,185.703705 
	C454.544769,169.925827 424.627106,178.404175 412.477295,204.468246 
	C408.048584,213.968872 406.017059,223.987320 406.291443,234.521194 
	C406.448212,240.539246 402.617157,245.113434 397.283386,246.041534 
	C392.704834,246.838226 387.782654,243.697617 385.632782,238.458679 
	C383.819031,234.038849 383.474823,229.395493 384.135834,224.707840 
	C384.924713,219.113312 385.700470,213.506012 386.829620,207.975235 
	C387.350372,205.424377 387.080688,203.737686 385.088196,201.840225 
	C373.735626,191.029083 367.086395,177.611664 364.112732,162.345551 
	C363.264343,157.990067 363.047241,153.511597 362.547607,149.150375 
	C360.099609,148.660965 358.192291,149.317627 356.290131,149.813919 
	C316.654877,160.155350 294.718170,203.623291 309.563049,242.376663 
	C312.494446,250.029205 311.422272,253.636749 304.438202,257.806915 
	C299.137817,260.971802 293.917267,264.194580 289.129425,268.122406 
	C259.563751,292.377563 255.358871,335.796173 280.544861,363.224396 
	C293.819885,377.681244 310.342651,384.903076 330.441772,380.590637 
	C340.441254,378.445160 349.149414,373.781830 356.402710,366.455566 
	C359.686218,363.139099 363.550201,361.540253 368.170929,363.718842 
	C372.801483,365.902161 374.466248,369.715576 374.447327,374.683594 
	C374.425110,380.530518 370.854248,384.248260 366.912231,387.614136 
	C354.305511,398.378357 339.702850,403.971039 323.051910,404.389954 
	C312.767090,404.648682 302.987244,402.460968 293.020813,398.840271 
	C293.418915,415.767609 299.003723,430.378235 309.338562,442.877075 
	C324.358398,461.041992 343.203339,471.674835 367.650665,469.751556 
	C371.096252,469.480499 374.394592,468.832001 377.136536,466.030792 
	C376.013855,465.119019 375.215729,464.526184 374.479401,463.864594 
	C363.290802,453.811249 355.032471,441.950958 352.184998,426.903442 
	C350.899719,420.111298 355.033813,413.410919 360.995514,412.013306 
	C365.781616,410.891357 371.613129,414.102051 372.870239,419.627747 
	C376.673553,436.345551 387.655884,447.056946 401.465973,455.821716 
	C410.935547,461.831726 411.369843,469.941589 402.807434,477.352570 
	C400.534058,479.320221 400.473572,480.782227 401.800354,483.253723 
	C414.264252,506.470795 446.823334,513.180054 467.540863,497.030396 
	C484.750946,483.614899 483.551819,465.185730 482.450073,446.613068 
	C480.388794,445.989838 478.935486,447.123413 477.363403,447.511688 
	C470.878204,449.113434 464.346252,450.637604 457.641876,450.069763 
	C428.586334,447.608887 406.733459,427.375061 402.121643,398.479004 
	C401.102020,392.090363 400.815125,385.490173 403.516693,379.283997 
	C406.012543,373.550598 410.477020,371.242462 415.888428,372.672791 
	C421.444946,374.141541 425.922363,379.552795 424.743591,384.924530 
	C419.758331,407.642670 444.778076,434.460175 473.845184,424.397888 
M416.557190,103.051743 
	C385.977020,117.718124 375.897919,162.176819 399.283051,182.442856 
	C401.269287,180.283386 403.232178,178.041763 405.307770,175.909866 
	C421.119385,159.669464 440.231506,152.762146 462.784485,155.714676 
	C468.095947,156.410034 473.171204,158.066895 478.132874,160.004074 
	C481.553802,161.339722 482.701935,160.182159 482.664307,156.755341 
	C482.596649,150.592926 482.795563,144.427109 482.698669,138.265610 
	C482.496582,125.410080 477.051208,115.075699 466.867126,107.431877 
	C451.362122,95.794342 434.604584,95.610992 416.557190,103.051743 
z"/>
<path fill="#000000" opacity="1.000000" stroke="none" 
	d="
M701.270203,221.063797 
	C706.750793,249.580826 687.676208,287.762054 656.742737,301.540283 
	C653.429260,303.016174 650.144104,304.037567 646.638367,302.794617 
	C641.823120,301.087341 638.909790,297.619751 638.425415,292.477081 
	C637.928040,287.196259 640.458618,283.511139 645.154907,281.338531 
	C654.704224,276.920898 662.885803,270.812988 669.071777,262.221283 
	C679.560852,247.653030 681.686523,231.807526 676.184448,214.830002 
	C673.557983,206.725586 677.286926,200.214920 685.069092,199.376144 
	C689.973511,198.847549 693.323181,201.288589 695.861389,205.171692 
	C698.934998,209.873886 700.115417,215.242874 701.270203,221.063797 
z"/>
<path fill="#000000" opacity="1.000000" stroke="none" 
	d="
M680.294495,328.611633 
	C683.339600,320.871124 686.034485,319.528656 693.991455,319.242981 
	C703.676331,318.895294 712.011597,314.916321 718.625427,307.713593 
	C720.467712,305.707184 721.222900,303.126465 721.645142,300.437225 
	C722.645813,294.064423 726.634705,290.437561 732.193909,290.741058 
	C738.127197,291.064941 743.070129,295.604767 743.413391,301.472595 
	C743.957458,310.772095 739.363281,318.262512 733.762085,324.910156 
	C723.468750,337.126495 709.415588,341.980927 693.979858,342.955475 
	C685.372253,343.498962 680.099121,337.686890 680.294495,328.611633 
z"/>
<path fill="#000000" opacity="1.000000" stroke="none" 
	d="
M339.632446,274.284393 
	C330.593292,260.443085 325.066376,245.871597 325.774414,229.423080 
	C326.076660,222.402039 327.469757,215.553497 330.096222,209.028656 
	C333.197235,201.324799 338.756897,197.892975 344.943329,199.587692 
	C351.379120,201.350693 354.812012,207.289398 352.311279,213.487793 
	C339.892975,244.268433 359.973175,270.712006 381.324097,280.563873 
	C388.801697,284.014252 391.567749,289.795441 388.949219,296.055634 
	C386.097870,302.872528 378.866333,305.212189 371.321320,301.544586 
	C358.493164,295.308685 347.837433,286.479858 339.632446,274.284393 
z"/>
<path fill="#000000" opacity="1.000000" stroke="none" 
	d="
M318.758850,315.283691 
	C323.756409,317.835449 328.630890,319.078613 333.949615,319.041626 
	C342.401428,318.982788 347.713928,323.660339 347.854828,330.800812 
	C347.992462,337.776215 341.965546,343.497284 333.693939,342.933746 
	C315.801880,341.714813 293.441315,334.259491 285.333588,308.593109 
	C282.832062,300.674164 285.373383,293.979950 292.000275,291.629211 
	C298.219971,289.422882 304.953308,292.451141 305.852936,299.016998 
	C306.974792,307.204895 311.856537,311.613861 318.758850,315.283691 
z"/>
</svg>